HIERARCHY
ROOT Hips
{
	OFFSET 0.000000 35.082581 0.000000
	CHANNELS 6 Xposition Yposition Zposition Xrotation Yrotation Zrotation 
	JOINT Spine
	{
		OFFSET 0.000000 6.876099 0.125700
		CHANNELS 3 Xrotation Yrotation Zrotation
		JOINT Spine1
		{
			OFFSET 0.000000 5.730043 0.104720
			CHANNELS 3 Xrotation Yrotation Zrotation
			JOINT Spine1_split
			{
				OFFSET 0.000000 5.730043 0.104720
				CHANNELS 3 Xrotation Yrotation Zrotation
				JOINT Spine2
				{
					OFFSET 0.000000 5.730043 0.104720
					CHANNELS 3 Xrotation Yrotation Zrotation
					JOINT Neck
					{
						OFFSET 0.000000 10.314075 0.188496
						CHANNELS 3 Xrotation Yrotation Zrotation
						JOINT Head
						{
							OFFSET 0.000000 7.643700 -2.377400
							CHANNELS 3 Xrotation Yrotation Zrotation
							JOINT HeadTop_End
							{
								OFFSET 0.000000 43.788605 -13.619600
								CHANNELS 3 Xrotation Yrotation Zrotation
								End Site
								{
									OFFSET 0.000000 0.000000 0.000000
								}
							}
						}
					}
					JOINT LeftShoulder
					{
						OFFSET 2.196100 4.412489 0.087492
						CHANNELS 3 Xrotation Yrotation Zrotation
						JOINT LeftShoulder_split
						{
							OFFSET 2.196100 4.412489 0.087492
							CHANNELS 3 Xrotation Yrotation Zrotation
							JOINT LeftArm
							{
								OFFSET 8.771219 -2.981674 -0.026999
								CHANNELS 3 Xrotation Yrotation Zrotation
								JOINT LeftForeArm
								{
									OFFSET 8.512804 0.000000 -0.000000
									CHANNELS 3 Xrotation Yrotation Zrotation
									JOINT LeftHand
									{
										OFFSET 18.484802 0.000000 -0.000000
										CHANNELS 3 Xrotation Yrotation Zrotation
										JOINT LeftHandThumb1
										{
											OFFSET 2.499420 -1.158070 2.653252
											CHANNELS 3 Xrotation Yrotation Zrotation
											JOINT LeftHandThumb2
											{
												OFFSET 2.370079 -1.368366 1.368366
												CHANNELS 3 Xrotation Yrotation Zrotation
												JOINT LeftHandThumb3
												{
													OFFSET 2.676727 -1.545410 1.545409
													CHANNELS 3 Xrotation Yrotation Zrotation
													JOINT LeftHandThumb4
													{
														OFFSET 1.692226 -0.977005 0.977007
														CHANNELS 3 Xrotation Yrotation Zrotation
														End Site
														{
															OFFSET 0.000000 0.000000 0.000000
														}
													}
												}
											}
										}
										JOINT LeftHandIndex1
										{
											OFFSET 7.924831 -0.457527 2.345128
											CHANNELS 3 Xrotation Yrotation Zrotation
											JOINT LeftHandIndex2
											{
												OFFSET 3.643303 0.000000 0.000000
												CHANNELS 3 Xrotation Yrotation Zrotation
												JOINT LeftHandIndex3
												{
													OFFSET 3.810799 0.000000 0.000000
													CHANNELS 3 Xrotation Yrotation Zrotation
													JOINT LeftHandIndex4
													{
														OFFSET 2.403702 0.000000 0.000000
														CHANNELS 3 Xrotation Yrotation Zrotation
														End Site
														{
															OFFSET 0.000000 0.000000 0.000000
														}
													}
												}
											}
										}
										JOINT LeftHandMiddle1
										{
											OFFSET 8.563995 0.000000 -0.000000
											CHANNELS 3 Xrotation Yrotation Zrotation
											JOINT LeftHandMiddle2
											{
												OFFSET 3.861618 0.000000 0.000000
												CHANNELS 3 Xrotation Yrotation Zrotation
												JOINT LeftHandMiddle3
												{
													OFFSET 3.701603 0.000000 0.000000
													CHANNELS 3 Xrotation Yrotation Zrotation
													JOINT LeftHandMiddle4
													{
														OFFSET 2.322544 0.000000 0.000000
														CHANNELS 3 Xrotation Yrotation Zrotation
														End Site
														{
															OFFSET 0.000000 0.000000 0.000000
														}
													}
												}
											}
										}
										JOINT LeftHandRing1
										{
											OFFSET 8.426460 -0.424637 -3.286992
											CHANNELS 3 Xrotation Yrotation Zrotation
											JOINT LeftHandRing2
											{
												OFFSET 3.126408 0.000000 0.000000
												CHANNELS 3 Xrotation Yrotation Zrotation
												JOINT LeftHandRing3
												{
													OFFSET 3.085026 0.000000 0.000000
													CHANNELS 3 Xrotation Yrotation Zrotation
													JOINT LeftHandRing4
													{
														OFFSET 1.644005 0.000000 0.000000
														CHANNELS 3 Xrotation Yrotation Zrotation
														End Site
														{
															OFFSET 0.000000 0.000000 0.000000
														}
													}
												}
											}
										}
									}
								}
							}
						}
					}
					JOINT RightShoulder
					{
						OFFSET -2.196100 4.412496 0.070690
						CHANNELS 3 Xrotation Yrotation Zrotation
						JOINT RightShoulder_split
						{
							OFFSET -2.196100 4.412496 0.070690
							CHANNELS 3 Xrotation Yrotation Zrotation
							JOINT RightArm
							{
								OFFSET -8.771282 -2.981682 -0.094208
								CHANNELS 3 Xrotation Yrotation Zrotation
								JOINT RightForeArm
								{
									OFFSET -8.494598 0.000000 0.000000
									CHANNELS 3 Xrotation Yrotation Zrotation
									JOINT RightHand
									{
										OFFSET -18.483803 0.000000 0.000001
										CHANNELS 3 Xrotation Yrotation Zrotation
										JOINT RightHandThumb1
										{
											OFFSET -2.527351 -1.008072 2.575253
											CHANNELS 3 Xrotation Yrotation Zrotation
											JOINT RightHandThumb2
											{
												OFFSET -2.321518 -1.340328 1.340329
												CHANNELS 3 Xrotation Yrotation Zrotation
												JOINT RightHandThumb3
												{
													OFFSET -2.657753 -1.534454 1.534455
													CHANNELS 3 Xrotation Yrotation Zrotation
													JOINT RightHandThumb4
													{
														OFFSET -1.807510 -1.043568 1.043567
														CHANNELS 3 Xrotation Yrotation Zrotation
														End Site
														{
															OFFSET 0.000000 0.000000 0.000000
														}
													}
												}
											}
										}
										JOINT RightHandIndex1
										{
											OFFSET -8.811420 0.015533 2.887987
											CHANNELS 3 Xrotation Yrotation Zrotation
											JOINT RightHandIndex2
											{
												OFFSET -3.537502 0.000000 0.000000
												CHANNELS 3 Xrotation Yrotation Zrotation
												JOINT RightHandIndex3
												{
													OFFSET -3.356201 0.000000 0.000000
													CHANNELS 3 Xrotation Yrotation Zrotation
													JOINT RightHandIndex4
													{
														OFFSET -1.933098 0.000000 0.000000
														CHANNELS 3 Xrotation Yrotation Zrotation
														End Site
														{
															OFFSET 0.000000 0.000000 0.000000
														}
													}
												}
											}
										}
										JOINT RightHandMiddle1
										{
											OFFSET -8.178135 0.000000 0.000000
											CHANNELS 3 Xrotation Yrotation Zrotation
											JOINT RightHandMiddle2
											{
												OFFSET -3.901302 0.000000 0.000000
												CHANNELS 3 Xrotation Yrotation Zrotation
												JOINT RightHandMiddle3
												{
													OFFSET -3.909599 0.000000 0.000000
													CHANNELS 3 Xrotation Yrotation Zrotation
													JOINT RightHandMiddle4
													{
														OFFSET -2.376003 0.000000 0.000000
														CHANNELS 3 Xrotation Yrotation Zrotation
														End Site
														{
															OFFSET 0.000000 0.000000 0.000000
														}
													}
												}
											}
										}
										JOINT RightHandRing1
										{
											OFFSET -7.559013 0.014137 -2.865403
											CHANNELS 3 Xrotation Yrotation Zrotation
											JOINT RightHandRing2
											{
												OFFSET -3.449306 0.000000 0.000000
												CHANNELS 3 Xrotation Yrotation Zrotation
												JOINT RightHandRing3
												{
													OFFSET -3.362106 0.000000 0.000000
													CHANNELS 3 Xrotation Yrotation Zrotation
													JOINT RightHandRing4
													{
														OFFSET -2.076401 0.000000 0.000000
														CHANNELS 3 Xrotation Yrotation Zrotation
														End Site
														{
															OFFSET 0.000000 0.000000 0.000000
														}
													}
												}
											}
										}
									}
								}
							}
						}
					}
				}
			}
		}
	}
	JOINT LeftUpLeg
	{
		OFFSET 10.205400 -3.823500 0.155100
		CHANNELS 3 Xrotation Yrotation Zrotation
		JOINT LeftLeg
		{
			OFFSET 0.708757 -12.982077 0.567790
			CHANNELS 3 Xrotation Yrotation Zrotation
			JOINT LeftFoot
			{
				OFFSET -0.708756 -10.717838 -2.184338
				CHANNELS 3 Xrotation Yrotation Zrotation
				JOINT LeftToeBase
				{
					OFFSET 0.108149 -7.191104 7.560241
					CHANNELS 3 Xrotation Yrotation Zrotation
					JOINT LeftToe_End
					{
						OFFSET 0.070230 0.081724 4.490308
						CHANNELS 3 Xrotation Yrotation Zrotation
						End Site
						{
							OFFSET 0.000000 0.000000 0.000000
						}
					}
				}
			}
		}
	}
	JOINT RightUpLeg
	{
		OFFSET -10.205400 -3.823500 0.005500
		CHANNELS 3 Xrotation Yrotation Zrotation
		JOINT RightLeg
		{
			OFFSET -0.708756 -12.982134 0.610632
			CHANNELS 3 Xrotation Yrotation Zrotation
			JOINT RightFoot
			{
				OFFSET 0.708754 -10.717769 -1.945823
				CHANNELS 3 Xrotation Yrotation Zrotation
				JOINT RightToeBase
				{
					OFFSET -0.108140 -7.191069 7.372968
					CHANNELS 3 Xrotation Yrotation Zrotation
					JOINT RightToe_End
					{
						OFFSET -0.070227 0.081735 4.479403
						CHANNELS 3 Xrotation Yrotation Zrotation
						End Site
						{
							OFFSET 0.000000 0.000000 0.000000
						}
					}
				}
			}
		}
	}
}
MOTION
Frames: 4
Frame Time: 0.016667
-2.392682 32.461174 -4.039736 -2.960499 -1.354976 1.989297 8.845774 2.823745 -4.954399 1.276167 0.577129 -0.622581 0.000000 0.000000 0.000000 1.278387 0.567047 -0.629523 -6.061336 0.449845 0.950595 5.338945 4.042159 -5.183568 -0.000000 -0.000000 0.000001 -0.302506 5.872714 -1.999056 0.000000 0.000000 0.000000 -14.720690 -10.177259 -69.281006 -0.000004 -33.970222 0.000017 11.041582 5.640844 -12.077301 -1.528251 3.687854 6.128899 3.939040 7.948710 0.746794 -0.579460 1.575008 2.538727 -0.000001 0.000001 -0.000002 0.033140 0.675962 -5.610575 0.032967 0.674443 -5.597735 0.032964 0.674423 -5.597741 0.000000 0.000000 -0.000001 0.069872 0.980269 -8.151103 0.078696 1.040185 -8.653160 0.076515 1.025677 -8.531546 -0.000002 0.000001 0.000000 0.141439 1.391203 -11.609549 0.158294 1.470738 -12.283641 0.154440 1.453029 -12.133360 -0.000000 -0.000002 0.000002 4.545758 12.839003 -7.835338 0.000000 0.000000 0.000000 -1.611810 -3.214994 72.442523 0.000017 36.829712 -0.000015 4.215974 0.157721 15.844615 -1.849254 -3.581792 -6.586147 4.637197 -8.634139 -0.225390 -1.273764 0.137308 -2.094867 0.000001 -0.000000 -0.000000 0.097325 -1.161569 9.577302 0.097295 -1.161577 9.577318 0.097324 -1.161574 9.577307 -0.000001 0.000001 0.000001 0.734447 -4.504872 10.622729 0.142235 -1.401931 11.584715 -0.321094 -1.479189 11.440317 -0.000001 -0.000000 -0.000002 1.799576 -8.681478 12.425414 0.204331 -1.676604 13.897314 -0.341217 -1.789765 13.721059 -0.000004 0.000001 0.000003 -22.093847 5.415300 5.424634 37.814331 5.985834 -2.350401 -11.923664 1.307681 -3.648835 -0.002832 -0.000004 0.000001 0.000000 -0.000000 0.000000 -1.862466 -17.095432 -15.899482 34.104186 1.762502 -5.349094 -28.419509 -4.772205 17.376029 -6.790707 0.000041 0.000007 -0.000000 0.000001 -0.000000 
-2.404722 32.464066 -4.073359 -2.864288 -1.428031 1.971520 8.968274 2.719625 -5.067018 1.296465 0.561210 -0.636465 0.000000 0.000000 0.000000 1.298514 0.551111 -0.643278 -6.130196 0.380288 1.181956 5.083279 4.090374 -5.065638 -0.000000 0.000000 0.000001 -0.303976 5.822773 -1.781857 0.000000 0.000000 0.000000 -14.889698 -10.799695 -69.024444 -0.000002 -34.489894 -0.000002 10.925310 5.810024 -12.083960 -1.528132 3.687819 6.128764 3.939031 7.948709 0.746793 -0.579465 1.575004 2.538727 0.000000 -0.000002 -0.000000 0.033143 0.675962 -5.610574 0.032965 0.674441 -5.597734 0.032965 0.674424 -5.597742 0.000001 -0.000001 0.000001 0.069870 0.980267 -8.151103 0.078691 1.040184 -8.653158 0.076513 1.025682 -8.531549 -0.000000 0.000003 0.000003 0.141444 1.391205 -11.609548 0.158293 1.470734 -12.283639 0.154437 1.453033 -12.133360 0.000002 0.000001 -0.000001 4.504508 12.696253 -7.406781 0.000000 0.000000 0.000000 -1.846154 -3.449417 72.003793 0.000007 37.086568 -0.000011 4.778072 -0.150868 16.413867 -1.849254 -3.581790 -6.586142 4.637204 -8.634135 -0.225387 -1.273761 0.137310 -2.094870 0.000003 -0.000001 0.000003 0.097322 -1.161570 9.577303 0.097296 -1.161580 9.577317 0.097327 -1.161577 9.577304 0.000003 0.000001 0.000001 0.734448 -4.504872 10.622728 0.142227 -1.401929 11.584712 -0.321099 -1.479190 11.440318 0.000003 0.000000 -0.000000 1.799576 -8.681477 12.425414 0.204337 -1.676603 13.897312 -0.341216 -1.789765 13.721061 0.000003 -0.000000 0.000000 -22.182668 5.436279 5.497346 37.841932 6.237080 -2.402629 -11.924083 1.334220 -3.695462 -0.002871 0.000003 0.000000 0.000000 -0.000001 -0.000000 -2.091021 -16.988424 -15.812918 34.156813 1.886359 -5.310561 -28.447308 -4.866150 17.208055 -6.654028 0.000037 -0.000003 0.000000 -0.000001 0.000000 
-2.417691 32.468052 -4.109826 -2.755671 -1.495474 1.948080 9.098556 2.593060 -5.155388 1.319394 0.540907 -0.647528 0.000000 0.000000 0.000000 1.321268 0.530790 -0.654146 -6.190337 0.319003 1.390178 4.811083 4.139859 -4.959373 -0.000000 -0.000001 -0.000000 -0.303275 5.756980 -1.556015 0.000000 0.000000 0.000000 -15.042484 -11.360655 -68.812633 0.000004 -34.989212 0.000018 10.923344 5.925806 -12.107337 -1.527916 3.687834 6.128551 3.939033 7.948705 0.746794 -0.579463 1.574999 2.538725 -0.000001 0.000002 -0.000000 0.033143 0.675970 -5.610576 0.032967 0.674443 -5.597736 0.032965 0.674417 -5.597742 0.000001 0.000000 0.000001 0.069874 0.980268 -8.151105 0.078696 1.040181 -8.653157 0.076513 1.025679 -8.531548 -0.000000 -0.000000 -0.000001 0.141442 1.391212 -11.609549 0.158294 1.470738 -12.283639 0.154434 1.453031 -12.133361 0.000001 -0.000003 -0.000001 4.474241 12.585511 -7.073513 0.000000 0.000000 0.000000 -2.036078 -3.701633 71.662242 -0.000002 37.330180 -0.000005 5.206092 -0.406974 16.986165 -1.849256 -3.581784 -6.586142 4.637195 -8.634138 -0.225390 -1.273762 0.137306 -2.094873 -0.000000 -0.000002 0.000003 0.097319 -1.161567 9.577302 0.097291 -1.161578 9.577318 0.097326 -1.161574 9.577307 -0.000001 0.000000 0.000001 0.734447 -4.504868 10.622726 0.142232 -1.401929 11.584715 -0.321096 -1.479188 11.440322 0.000001 -0.000000 0.000001 1.799574 -8.681473 12.425411 0.204338 -1.676604 13.897312 -0.341218 -1.789764 13.721062 0.000001 -0.000001 0.000001 -22.294246 5.437428 5.567716 37.872094 6.519977 -2.440563 -11.913374 1.357077 -3.760505 -0.002936 -0.000004 0.000002 0.000000 0.000001 0.000000 -2.333043 -16.881608 -15.728776 34.207527 1.985947 -5.262210 -28.456880 -4.939384 17.062098 -6.535492 0.000042 0.000004 -0.000000 -0.000000 -0.000000 
-2.434220 32.475452 -4.153618 -2.603787 -1.531435 1.910888 9.242364 2.398008 -5.180199 1.348061 0.507319 -0.651501 0.000000 0.000000 0.000000 1.349750 0.497194 -0.657720 -6.227112 0.278793 1.541825 4.498672 4.198866 -4.883209 -0.000000 0.000000 0.000000 -0.297159 5.645776 -1.293682 0.000000 0.000000 0.000000 -15.168831 -11.755817 -68.723827 0.000007 -35.439734 0.000015 11.246020 5.895225 -12.186544 -1.527500 3.687780 6.128152 3.939035 7.948711 0.746792 -0.579461 1.575007 2.538724 -0.000001 0.000001 0.000001 0.033142 0.675970 -5.610575 0.032968 0.674440 -5.597734 0.032963 0.674417 -5.597740 -0.000001 -0.000001 -0.000000 0.069873 0.980266 -8.151103 0.078698 1.040182 -8.653159 0.076515 1.025683 -8.531547 -0.000001 -0.000001 0.000001 0.141443 1.391206 -11.609551 0.158293 1.470739 -12.283641 0.154437 1.453028 -12.133361 -0.000002 0.000001 -0.000001 4.469022 12.563357 -6.980684 0.000000 0.000000 0.000000 -2.107498 -4.025339 71.586748 0.000002 37.565316 0.000018 5.445502 -0.606391 17.768297 -1.849251 -3.581787 -6.586149 4.637196 -8.634143 -0.225392 -1.273758 0.137305 -2.094875 0.000003 -0.000001 0.000003 0.097321 -1.161568 9.577302 0.097291 -1.161581 9.577315 0.097322 -1.161575 9.577305 -0.000002 0.000000 0.000003 0.734446 -4.504871 10.622728 0.142235 -1.401929 11.584713 -0.321093 -1.479189 11.440320 0.000002 0.000000 -0.000001 1.799578 -8.681476 12.425414 0.204332 -1.676604 13.897313 -0.341215 -1.789766 13.721062 -0.000001 0.000001 0.000000 -22.480681 5.372899 5.622085 37.902502 6.921099 -2.427841 -11.862194 1.339188 -3.888894 -0.003067 -0.000007 0.000002 0.000000 0.000000 -0.000000 -2.610563 -16.783901 -15.653204 34.249751 2.015009 -5.175576 -28.419649 -4.959055 16.969892 -6.474458 0.000040 0.000003 0.000000 -0.000001 -0.000000 
